<svg class="icon" viewBox="0 0 1025 1024" xmlns="http://www.w3.org/2000/svg" width="200.195" height="200"><path d="M818.81 614.263c-11.25 0-20.407 9.18-20.407 20.452v286.402h-695.52V102.905h695.498v286.38c0 11.295 9.158 20.453 20.407 20.453 11.295 0 20.497-9.135 20.497-20.453V82.453c.023-11.295-9.18-20.452-20.475-20.452H82.43C71.135 62.001 62 71.158 62 82.453v859.118c0 11.295 9.135 20.43 20.43 20.43h736.38c11.295 0 20.498-9.135 20.498-20.43V634.716c0-11.273-9.202-20.453-20.498-20.453M941.525 491.57H295.482l128.7-128.745c3.712-3.713 6.007-8.798 6.007-14.467 0-11.295-9.203-20.453-20.475-20.453-5.648 0-10.755 2.295-14.468 6.007l-163.62 163.642c-3.712 3.667-6.007 8.82-6.007 14.445s2.295 10.777 6.007 14.445l163.62 163.642c3.735 3.713 8.82 6.007 14.468 6.007 11.25 0 20.475-9.157 20.475-20.475a20.299 20.299 0 0 0-6.007-14.423l-128.7-128.79h646.043c11.34 0 20.475-9.113 20.475-20.43 0-11.273-9.135-20.409-20.475-20.409z"/></svg>