<svg width="25" height="23" viewBox="0 0 25 23" fill="none" xmlns="http://www.w3.org/2000/svg"><path d="M20.536 11.5V5.554c0-.911-.547-2.733-2.733-2.733h-1.607c-.321 0-.964-.321-1.446-.803-.322-.322-.868-1.125-2.41-1.125H9.124c-1.543 0-2.09.803-2.41 1.125-.483.482-1.126.803-1.447.803H3.66C1.475 2.821.928 4.643.928 5.554v10.285c0 2.186 1.822 2.732 2.733 2.732h9.803m3.536 0h7.071m-3.535-3.535v7.071m-5.947-11.732a3.857 3.857 0 1 1-7.714 0 3.857 3.857 0 0 1 7.714 0z" stroke="#868686" stroke-width="1.5" stroke-linecap="round"/></svg>