<svg class="icon" viewBox="0 0 1024 1024" xmlns="http://www.w3.org/2000/svg" width="64" height="64"><path d="M850.6 482.1h-78v-197c0-.6.3-1 .3-1.6 0-.7-.1-1.4-.1-2.1.2-1.6.4-3.2.5-4.8h-.7c-3.7-143-120.8-258.2-264.7-258.2-146.2 0-265.1 118.9-265.1 265.1v198.6h-77.6c-29.7 0-54 24.3-54 54v420c0 29.7 24.3 54 54 54h685.3c29.7 0 54-24.3 54-54V536c.1-29.6-24.2-53.9-53.9-53.9zM350.8 283.5c0-86.7 70.5-157.1 157.2-157.1 85.9 0 155.8 69.4 156.9 155.1 0 .7-.1 1.4-.1 2v198.6h-314V283.5zm201.8 455.9v101.2c0 24.1-19.7 43.8-43.8 43.8h-1.7c-24.1 0-43.8-19.7-43.8-43.8V739.4c-21.2-14.3-35.1-38.6-35.1-66 0-44 35.7-79.7 79.7-79.7s79.7 35.7 79.7 79.7c0 27.5-13.9 51.7-35 66z"/></svg>