<svg xmlns="http://www.w3.org/2000/svg" width="30.623" height="27.418"><defs><clipPath id="a"><path fill="none" d="M0 0h30.623v27.418H0z"/></clipPath></defs><g clip-path="url(#a)"><path d="M1.907 16.568Q13.822 8.614 17.813 6.045c7.6-4.89 9.2-5.789 10.3-6.009a1.975 1.975 0 0 1 1.207.138 1.265 1.265 0 0 1 .568.726 5.3 5.3 0 0 1 .259 1.155c.395 4.754.508 16.444.469 21.855-.016 2.29-.7 3.179-1.476 3.394-1.688.466-3.224-.592-5.083-1.383-2.908-1.238-4.569-2.036-7.393-3.246-3.264-1.4-1.562-2.8-.209-4.823.354-.53 6.682-8.769 6.716-9.42a.614.614 0 0 0-.232-.5.692.692 0 0 0-.623.051q-.375.159-10.989 10.482a5.7 5.7 0 0 1-2.993 1.76 21.432 21.432 0 0 1-4.791-.262C1.585 19.7.056 19.642 0 18.6q-.043-.817 1.906-2.028" /></g></svg>
