<svg class="icon" viewBox="0 0 1025 1024" xmlns="http://www.w3.org/2000/svg" width="200.195" height="200"><path d="M839.946 389.337c0-179.918-147.043-325.821-328.561-325.821-181.46 0-328.562 145.903-328.562 325.82 0 59.447 16.308 114.956 44.309 162.94h-.351l284.574 407.317 284.69-407.317h-.38c28.092-47.984 44.281-103.493 44.281-162.94m-328.532 162.88c-90.717 0-164.28-72.922-164.28-162.908 0-89.927 73.563-162.908 164.28-162.908 90.802 0 164.28 72.98 164.28 162.908 0 89.986-73.478 162.908-164.28 162.908"/></svg>