<svg xmlns="http://www.w3.org/2000/svg" viewBox="0 0 1024 1024" height="1024" width="1024"><defs><linearGradient id="a" y2="-.058%" x2="50%" y1="100.122%" x1="50%"><stop offset="0%" stop-opacity=".1" stop-color="#FFF"/><stop offset="100%" stop-color="#D9E9FF"/></linearGradient><linearGradient id="b" y2=".006%" x2="50.084%" y1="100%" x1="50.084%"><stop offset="0%" stop-opacity=".1" stop-color="#FFF"/><stop offset="14%" stop-opacity=".27" stop-color="#F8FBFF"/><stop offset="37%" stop-opacity=".52" stop-color="#EDF5FF"/><stop offset="58%" stop-opacity=".73" stop-color="#E4F0FF"/><stop offset="76%" stop-opacity=".88" stop-color="#DEECFF"/><stop offset="91%" stop-opacity=".97" stop-color="#DAEAFF"/><stop offset="100%" stop-color="#D9E9FF"/></linearGradient><linearGradient id="c" y2="-.081%" x2="50.005%" y1="99.931%" x1="50.005%"><stop offset="0%" stop-opacity=".1" stop-color="#FFF"/><stop offset="9%" stop-opacity=".13" stop-color="#FEFEFF"/><stop offset="23%" stop-opacity=".21" stop-color="#FBFCFF"/><stop offset="40%" stop-opacity=".33" stop-color="#F5F9FF"/><stop offset="59%" stop-opacity=".51" stop-color="#EEF5FF"/><stop offset="79%" stop-opacity=".74" stop-color="#E4EFFF"/><stop offset="100%" stop-color="#D9E9FF"/></linearGradient><linearGradient id="d" y2="0%" x2="50%" y1="100%" x1="50%"><stop offset="0%" stop-opacity=".1" stop-color="#FFF"/><stop offset="13%" stop-opacity=".19" stop-color="#FBFDFF"/><stop offset="41%" stop-opacity=".43" stop-color="#F1F7FF"/><stop offset="81%" stop-opacity=".82" stop-color="#E1EEFF"/><stop offset="100%" stop-color="#D9E9FF"/></linearGradient><linearGradient id="e" y2="0%" x2="50%" y1="100%" x1="50%"><stop offset="0%" stop-color="#FFF"/><stop offset="100%" stop-color="#D9E9FF"/></linearGradient><linearGradient id="f" y2="50.006%" y1="50.006%" x1="0%"><stop offset="0%" stop-color="#E0E7FF"/><stop offset="33%" stop-color="#CCDFFB"/><stop offset="71%" stop-color="#BBD9F7"/><stop offset="100%" stop-color="#B5D7F6"/></linearGradient><linearGradient id="g" y2="50%" y1="50%" x1="0%"><stop offset="0%" stop-color="#EEF6FF"/><stop offset="100%" stop-color="#D2E6FE"/></linearGradient><linearGradient id="h" y2="-1361.692%" x2="-1298.126%" y1="-1361.692%" x1="-1198.126%"><stop offset="0%" stop-color="#ECF5FF"/><stop offset="24.839%" stop-color="#F9FCFF"/><stop offset="45%" stop-color="#DAEAFF"/><stop offset="74.703%" stop-color="#C7DFFF"/><stop offset="100%" stop-color="#C0DBFF"/></linearGradient><linearGradient id="i" y2="50%" x2="-14.89%" y1="50%" x1="100%"><stop offset="0%" stop-color="#FFF"/><stop offset="6%" stop-color="#F9FCFF"/><stop offset="67.48%" stop-color="#DAEAFF"/><stop offset="84.97%" stop-color="#C7DFFF"/><stop offset="100%" stop-color="#C0DBFF"/></linearGradient><linearGradient id="j" y2="45.885%" x2="106.884%" y1="56.986%" x1="28.697%"><stop offset="0%" stop-color="#D7E8FF"/><stop offset="100%" stop-color="#EAF3FF"/></linearGradient><linearGradient id="k" y2="-4054.706%" x2="-1316.744%" y1="-4054.706%" x1="-1416.744%"><stop offset="0%" stop-color="#CBE2FC"/><stop offset="4%" stop-color="#FCFDFF"/><stop offset="35%" stop-color="#E9F3FF"/><stop offset="66%" stop-color="#DEECFF"/><stop offset="100%" stop-color="#DAEAFF"/></linearGradient></defs><g fill-rule="evenodd" fill="none"><path fill="#FFF" d="M0 0h1024v1024H0z"/><g fill-rule="nonzero"><path fill="#E4EFFF" d="M201.37 594l4.63 48-29-3.192z"/><path fill="#F3F8FF" d="M200 594l30 37.886L204.547 642z"/><path fill="#E4EFFF" d="M100.339 606L106 667l-35-4.069z"/><path fill="#F3F8FF" d="M101 606l37 48.205L106.669 667z"/><path fill="#E4EFFF" d="M148.48 564L158 665l-64-6.291z"/><path fill="#F3F8FF" d="M147 564l67 79.373L156.527 665z"/><path fill="url(#a)" d="M167.227 342.027c-3.734-20.012-21.217-34.386-41.378-34.02-10.787-.05-21.199 3.997-29.167 11.34a34.354 34.354 0 0 0-14.205-3.09c-15.519-.247-29.105 10.474-32.62 25.741C37.932 344.661 29.33 355.182 29 367.513c.459 15.006 12.817 26.829 27.679 26.479h103.642c14.868.365 27.236-11.466 27.679-26.479-.324-12.299-8.884-22.801-20.773-25.486z"/><path fill="url(#b)" d="M768.714 203.096c-5.387-8.441-14.499-13.684-24.408-14.046-5.77-8.93-15.655-14.233-26.181-14.045-8.44-.085-16.558 3.28-22.522 9.335a27.6 27.6 0 0 0-8.446-1.342c-13.26 0-24.21 9.307-25.337 21.068-10.107 2.443-17.385 11.397-17.82 21.925C644 238.666 655.458 249 669.337 249h97.322c14.077 0 25.337-10.334 25.337-23.01.226-12.046-10.19-21.952-23.282-22.894z"/><path fill="url(#c)" d="M949.624 171.743c-9.501-19.576-29.337-32.033-51.114-32.1a56.48 56.48 0 0 0-33.647 11.204c-11.564-22.534-36.68-34.68-61.547-29.764-24.867 4.917-43.458 25.704-45.56 50.94-26.75 8.432-43.348 35.091-39.093 62.788 4.255 27.697 28.091 48.157 56.14 48.189h158.25c28.212.053 52.193-20.575 56.328-48.454 4.136-27.88-12.826-54.569-39.841-62.691l.084-.112z"/><ellipse ry="162" rx="512" cy="742" cx="512" fill="url(#d)"/><path fill="#E4EFFF" d="M906 606l-4.874 64L865 659.523z"/><path fill="#F3F8FF" d="M904.847 606L935 662.39 900 670z"/><path fill="url(#e)" d="M707 615l-191-29.618V384l191 29.618z"/><path fill="url(#f)" d="M349 618l166-31.155V385l-166 31.183z"/><path fill="url(#g)" d="M539 647l-191-29.622V416l191 29.594z"/><path fill="url(#h)" d="M541 647l166-31.155V414l-166 31.155z"/><path fill="url(#i)" d="M487.515 494L297 464.176 348.485 415 539 444.795z"/><path fill="url(#j)" d="M120.665 25.304L136 34.037s-31.127-.339-44.45 10.96C78.228 56.296 66.57 80.885 23.814 66.225c-42.757-14.659-10.27-30.397 6.134-27.645 16.403 2.752 38.774-3.056 49.959-14.66 11.185-11.602 36.928-1.673 40.758 1.384z" transform="translate(357 404)"/><path fill="#143E81" d="M433.507 413.483s-13.558.235-22.76 12.681c-2.608 3.665-4.135 6.03-5.37 7.939-1.235 1.908-4.677 5.269-9.728 1.147-5.051-4.12-17.694-14.742-17.694-14.742l-6.661 8.948s21.982 24.105 30.947 22.97c8.965-1.147 18.998-.234 30.572-14.506 11.574-14.286 14.558-17.716 14.558-17.716l-13.864-6.721z"/><path fill="#003A8C" d="M374.694 413.94l-16.25 21.795s5.745 5.919 11.878-2.863c6.134-8.782 9.465-14.01 9.465-14.01l-5.093-4.923z"/><path fill="#001529" d="M373.584 412.446l-8.008 8.975 1.5 1.646-9.993 11.74 1.305 1.329 18.152-20.897z"/><path fill="#3E65A3" d="M434.145 414.188s-10.366 3.056-16.708 15.572c-6.328 12.53-7.3 17.204-14.308 13.747-6.994-3.458-19.873-9.875-19.873-9.875l-5.676 9.972s25.34 20.412 35.194 15.931c9.853-4.48 40.259-24.948 40.259-24.948s2.15-7.634 1.79-7.994c-.347-.332-20.678-12.405-20.678-12.405z"/><path fill="#003A8C" d="M379.26 428.57l-16.251 21.796s5.745 5.92 11.88-2.863c6.133-8.781 9.464-14.009 9.464-14.009l-5.093-4.923z"/><path fill="#001529" d="M378.15 427.077l-8.008 8.976 1.499 1.645-9.978 11.742 1.304 1.327 18.138-20.896z"/><path fill="#53A4FC" d="M493 438.037s-5.008-35.037-33.32-34.014c-28.312 1.024-34.347 4.868-34.93 7.98-.402 2.102 2.04 2.821 2.04 2.821s19.817 7.579 22.981 21.74c.514 2.337 2.249 1.632 7.147-.304 4.9-1.936 12.324-4.26 21.871-2.586 6.03.768 14.211 4.363 14.211 4.363z"/><path fill="url(#k)" d="M592.592 494L759 462.897 707.408 414 541 445.103z"/></g></g></svg>