<svg class="icon" viewBox="0 0 1024 1024" xmlns="http://www.w3.org/2000/svg" width="200" height="200"><path d="M512 64C264.64 64 64 264.64 64 512c0 247.424 200.64 448 448 448 247.488 0 448-200.576 448-448 0-247.36-200.512-448-448-448zm0 832.768c-212.48 0-384.768-172.224-384.768-384.768S299.52 127.232 512 127.232 896.64 299.52 896.64 512 724.48 896.768 512 896.768zM357.312 384c20.672 0 37.376 16.768 37.376 37.376 0 20.672-16.704 37.44-37.376 37.44-20.608 0-37.376-16.768-37.376-37.44 0-20.608 16.768-37.376 37.376-37.376zm314.624 0c20.608 0 37.376 16.768 37.376 37.376 0 20.672-16.768 37.44-37.376 37.44s-37.44-16.768-37.44-37.44c0-20.608 16.832-37.376 37.44-37.376zM352 704c-17.664 0-32-14.336-32-32s14.336-32 32-32h320c17.664 0 32 14.336 32 32s-14.336 32-32 32H352z"/></svg>