<svg xmlns="http://www.w3.org/2000/svg" xmlns:xlink="http://www.w3.org/1999/xlink" width="480" height="480" viewBox="0 0 480 480"><defs><linearGradient id="b" x1="1.128" y1=".988" x2=".364" y2="1" gradientUnits="objectBoundingBox"><stop offset="0" stop-color="#e0e5ef" stop-opacity="0"/><stop offset="1" stop-color="#e0e5ef"/></linearGradient><linearGradient id="c" x1="1" y1=".5" x2=".112" y2="1.125" gradientUnits="objectBoundingBox"><stop offset="0" stop-color="#fff" stop-opacity="0"/><stop offset="1" stop-color="#747f95"/></linearGradient><linearGradient id="a" x1="-.392" y1="1.114" x2=".5" y2=".396" gradientUnits="objectBoundingBox"><stop offset="0" stop-color="#fff" stop-opacity="0"/><stop offset="1" stop-color="#ebedf5"/></linearGradient><linearGradient id="d" x1="-.906" y1="1.646" x2=".636" y2=".061" xlink:href="#a"/><linearGradient id="e" x1="-.109" y1="1.931" x2=".736" y2=".141" xlink:href="#a"/></defs><g transform="translate(-135 -375)"><circle cx="184" cy="184" r="184" transform="translate(191 443)" fill="#f3f3fa"/><path d="M2925 350c-8.837 0-16-32.235-16-72s7.163-72 16-72c.038 0 11.813.471 18.75-7.529s9-14.486 9-24.469c0-34.257 14.681-58.6 28.25-63.313 3.909-.688 10 .818 16-4.354s8-9.372 8-16.333c0-37.555 12.536-68 28-68s28 30.445 28 68c0 6.961-.667 10.328 5.333 15.5s14.76 4.5 18.667 5.187c13.569 4.714 24 33.055 24 67.312a101.212 101.212 0 0 0 2.333 20s4.485 11.842 11 5.5 9.13-14.885 10.25-22.871C3135.767 157.923 3142.61 142 3149 142c6.519 0 12.127 16.566 14.645 40.566.741 7.066 2.2 11.743 6.521 17.6A14.3 14.3 0 0 0 3180.92 206h.08c6.488 0 12.073 16.409 14.617 40.308.5 4.725.982 7.6 5.3 11.527s11.967 4.165 11.967 4.165h.116c2.16 0 4.255 1.8 6.228 5.344a58.6 58.6 0 0 1 5.086 14.573c3.022 12.841 4.686 29.918 4.686 48.083 0 6.817-.237 13.546-.7 20H2925zm303.3 0z" transform="translate(-2718 397)" fill="url(#b)"/><path d="M117 208H.7c-.466-6.453-.7-13.181-.7-20 0-18.163 1.664-35.24 4.686-48.083a58.6 58.6 0 0 1 5.086-14.573C11.745 121.8 13.84 120 16 120h.116s7.651-.242 11.967-4.166 4.8-6.8 5.3-11.527C35.927 80.408 41.513 64 48 64a16.6 16.6 0 0 0 3.3-1.014 6.153 6.153 0 0 0 2.065-1.486c6.515-6.342 9.13-14.884 10.25-22.871C66.8 15.924 73.642 0 80.032 0c6.518 0 12.126 16.566 14.644 40.567.742 7.065 2.2 11.742 6.521 17.6A14.3 14.3 0 0 0 111.951 64h.081c6.487 0 12.073 16.409 14.617 40.307.5 4.725.983 7.6 5.3 11.527S143.915 120 143.915 120h.116c2.16 0 4.255 1.8 6.228 5.344a58.6 58.6 0 0 1 5.086 14.573c3.022 12.844 4.686 29.921 4.686 48.083 0 6.818-.237 13.546-.7 20H117zm42.328 0zM.7 208z" transform="translate(350.969 539)" fill="url(#b)"/><path d="M287 763c-10.838-4.087-16.3 0-32 0-26.51 0-48-8.954-48-20s21.49-20 48-20h256a16 16 0 1 1 0 32s-15.5 0-27.5 3-20.5 11.714-20.5 11.714S425.392 811 379 811c-38.041 0-70.176-13.246-80.647-31.653-2.134-3.747-.515-12.26-11.353-16.347z" fill="#d1d6e2"/><path d="M551 507s-56.355 45.651-64 16 74.25-17.75-16 72" fill="none" stroke="#909aa9" stroke-linecap="round" stroke-width="2" stroke-dasharray="10"/><path d="M451 605.285c3.15-2.95 12-2.2 12-2.2s-1.5 4-2.6 8-.232 5.942-1.8 8c-4 5.25-11.6 5-11.6 5s.75-3.4 2-8-1.15-7.85 2-10.8z" fill="#909aa9"/><ellipse cx="10" cy="4" rx="10" ry="4" transform="translate(294 787)" fill="url(#c)"/><path d="M311 786.057s-6-8.115-10-6.94-4.375 3.87-7.875 5.605a11.222 11.222 0 0 1-6.125 1.335s2.625 6.673 9.375 6.94c3.044.12 4.969-2.936 8.625-4.671a32.451 32.451 0 0 1 6-2.269z" fill="#909aa9"/><path d="M191 699l57 4.5 79-4.5 31.5 12 17 10-37 8.5-24.5-5-58 5-61-7.5z" fill="#fff"/><path d="M194.6 721.2L256 729l58.75-5.25L339 729l36-9v24.5l-34.6 4.5-16.2-7.25-32.6 1.25-5.1 1.5-23.3-2.75-62.2 1.5s-2.2-6.537-3.8-12.05-2.6-10-2.6-10z" fill="#eceff5"/><ellipse cx="43" cy="9.5" rx="43" ry="9.5" transform="translate(253 701)" fill="#ebedf5"/><path d="M322.27 659.55a31.23 31.23 0 0 1 7.085 10.425c2.772 6.6 5.877 13.459 8.386 14.78s3.695 10.033-8.053 8.185-7.418-33.39-7.418-33.39z" fill="#fff"/><path d="M525.494 68.3a32.341 32.341 0 0 1 6.953 16.851c.847 8.628 2.933 13.332 5.151 13.016a12.659 12.659 0 0 1-5.991-.025c-3.515-.772-7.533-29.73-6.113-29.842z" transform="translate(-202.273 593.91)" fill="url(#a)"/><path d="M321.077 711.12a34.415 34.415 0 0 0 14.137 1.09c6.9-.975 8.727-13.747-.647-15.059-7.267-1.02-6.026-12.167-7.366-22.433s-6.56-18.848-7.364-23.026 4.251-9.233 3.614-18.062c-.652-9.065-6.3-10.479-8.307-10.074s-3.609 2.392-6.154 3.47-6.292-.673-11.112 1.619-9.377 7.547-9.377 7.547c-2.009 2.561.4 10.648-.938 14.691s-6.694 39.223-6.56 49.062 6.426 16.715 19.952 18.467 19.419-.606 19.856-4.448c.279-2.443 1.905-11.053-7.8-12.535-4.83-.74-7.363-1.347-7.363-1.347" fill="#fff"/><path d="M313.843 625.148s.961-1.578 1.726-1.594c1.313-.026 2.7 1.631 2.7 1.631s-4.383 1.733-4.426-.037zM315.613 615.073c-2.054-.536-2.278 2.085-2.278 2.085s-2.89-.313-2.6 1.743c.357 2.566 5.831 2.443 5.831 2.443s1.553-5.615-.953-6.271z" fill="#757f95"/><path d="M289.451 637.95s-6.088-1.338-6.755 3.318 4.181 7.509 7.656.6" fill="#fff"/><path d="M503.084 74.624s-1.45 17.9 1.1 22.385c2.3 4.044 10.662 5.138 16.755 4.63a25.038 25.038 0 0 0 6.013-1.246c6.068-2.157 2.831-6.2 0-8.893s-3.738-10.346-8.593-14.5" transform="translate(-213.501 597.626)" fill="url(#d)"/><path d="M303.41 631.722a.6.6 0 0 0-.522.31l-.009.014a4.814 4.814 0 0 1-3.228 2.322h-.019a.6.6 0 0 0-.509.5h-.011l-.406 1.078s.341-.014.842-.088l.057-.307.11-.584v.865c.188-.031.389-.073.6-.121v-.747l.064.454.037.268a5.609 5.609 0 0 0 2.386-1.138 4.083 4.083 0 0 0 1.152-1.977c.04-.155.054-.248.054-.248a.6.6 0 0 0-.598-.601z" fill="#757f95"/><path d="M531.516 76.393c-3.6-3.507-6.766.555-6.766.555s-6.2-4.888-8.5.26C513.373 83.63 528.051 94 528.051 94s7.149-14.018 3.465-17.607z" transform="translate(-207.216 597.516)" fill="url(#e)"/><path d="M289.622 671.615s5.02 15.274 7.571 19.76c3.236 5.688 9.468 8.51 15.533 6.355s2.831-5.527 0-8.223-4.074-11.788-8.929-15.943" fill="#fff"/><path d="M377 786.833l18-9.5 2.667 4v8.2L390 795l-4.833-5.468-8.167 1.139z" fill="#eceff5"/><path d="M381 780.167L395 777v10l-5 3.167-4.833-4L377 787z" fill="#fff"/><path d="M399.844 753.753l16.328-6.617.006 14.111-2.163 4.61-14.166.007z" fill="#eceff5"/><path d="M409.75 747H416l-3.75 7H400z" fill="#fff"/><g><path d="M543 702l-33.077 4.5-39.607-4.5-15.793 12L446 724l18.55 8.5 12.283-5 29.079 5 23.488-5 6.467-12.126z" fill="#fff"/><path d="M529.8 725.94l-28.1 3.945-26.879-2.652-11.1 2.655L446 724v13.724L463.083 740l7.414-3.667 14.917.632 2.334.759 10.662-1.391 28.991 1.391s-1.4-1.778 0-4.724a43.992 43.992 0 0 0 2.399-7.06z" fill="#eceff5"/></g></g></svg>