<svg width="24" height="24" viewBox="0 0 24 24" fill="none" xmlns="http://www.w3.org/2000/svg"><path d="M12.939 20.445a.75.75 0 0 0 1.5 0h-1.5zm8.256-6.756a.75.75 0 0 0-1.5 0h1.5zm-4.742 2.764v-.75a.75.75 0 0 0-.75.75h.75zm0 1.228h-.75c0 .414.335.75.75.75v-.75zm1.228 0v.75a.75.75 0 0 0 .75-.75h-.75zm0-1.228h.75a.75.75 0 0 0-.75-.75v.75zm-11.362 0v-.75a.75.75 0 0 0-.75.75h.75zm0 1.228h-.75c0 .414.336.75.75.75v-.75zm1.229 0v.75a.75.75 0 0 0 .75-.75h-.75zm0-1.228h.75a.75.75 0 0 0-.75-.75v.75zM6.319 6.319v-.75a.75.75 0 0 0-.75.75h.75zm0 1.229h-.75c0 .414.336.75.75.75v-.75zm1.229 0v.75a.75.75 0 0 0 .75-.75h-.75zm0-1.229h.75a.75.75 0 0 0-.75-.75v.75zm8.905 0v-.75a.75.75 0 0 0-.75.75h.75zm0 1.229h-.75c0 .414.335.75.75.75v-.75zm1.228 0v.75a.75.75 0 0 0 .75-.75h-.75zm0-1.229h.75a.75.75 0 0 0-.75-.75v.75zM5.245 3.556v.75-.75zm13.51 0v.75-.75zM5.246 20.445v-.75.75zm9.194-4.453V14.15h-1.5v1.842h1.5zm0-1.842a.244.244 0 0 1-.05.15.354.354 0 0 1-.123.106.27.27 0 0 1-.116.033v-1.5c-.43 0-.77.195-.978.485-.18.25-.233.529-.233.726h1.5zm-.29.289H17.835v-1.5H14.343 14.313 14.277h-.015H14.243h-.007-.01H14.213h-.003-.003-.003-.003-.003-.003-.003-.008-.003-.008-.005-.005-.002-.005-.002-.004v1.5zm5.546 3.395v.922h1.5v-.922h-1.5zm0 .922c0 .161-.055.42-.197.617-.114.159-.311.322-.742.322v1.5c.92 0 1.567-.4 1.96-.946.364-.506.479-1.092.479-1.493h-1.5zm-.94.939H16.468 16.358h-.027-.015H16.271h-.007-.007-.007-.007-.007-.017-.01H16.196 16.183h-.003-.016-.003-.003-.003-.003H16.131h-.003-.003-.003-.003-.003-.011-.003-.008-.003-.003-.005-.003-.005-.008-.005-.003-.002-.005-.003-.002-.003-.002-.005-.005-.002-.005-.002-.005-.002-.002-.005-.002-.002-.007-.002-.002-.002v1.5H18.756v-1.5zm-5.816-1.86v2.61h1.5v-2.61h-1.5zm8.256-1.843v-2.303h-1.5v2.303h1.5zm-5.492.46v1.229h1.5v-1.228h-1.5zm.75 1.979h1.228v-1.5h-1.228v1.5zm1.978-.75v-1.228h-1.5v1.228h1.5zm-.75-1.978h-1.228v1.5h1.228v-1.5zm-12.112.75v1.228h1.5v-1.228h-1.5zm.75 1.978h1.229v-1.5H6.319v1.5zm1.979-.75v-1.228h-1.5v1.228h1.5zm-.75-1.978H6.319v1.5h1.229v-1.5zM5.569 6.319v1.229h1.5V6.319h-1.5zm.75 1.979h1.229v-1.5H6.319v1.5zm1.979-.75V6.319h-1.5v1.229h1.5zm-.75-1.979H6.319v1.5h1.229v-1.5zm8.155.75v1.229h1.5V6.319h-1.5zm.75 1.979h1.228v-1.5h-1.228v1.5zm1.978-.75V6.319h-1.5v1.229h1.5zm-.75-1.979h-1.228v1.5h1.228v-1.5zM4.016 9.561a.244.244 0 0 1 .15.05.353.353 0 0 1 .107.123.27.27 0 0 1 .033.117h-1.5c0 .428.195.769.484.977.251.18.53.233.726.233v-1.5zm.29.29v-.003-.002-.002-.002-.003-.002-.003-.002-.003-.003-.003-.002-.003-.003-.003-.003-.003-.003V9.8v-.004-.003-.003-.004-.003-.004-.003-.004-.004-.003-.004-.004-.004-.004-.004-.004-.004-.004-.004-.004-.004-.005-.004-.005-.004-.005-.004-.005-.004-.005-.005-.005-.004-.005-.005-.005-.005-.005-.006-.005-.005-.005-.006-.005-.005-.006-.005-.006-.006-.005-.006-.006-.005-.006-.006-.006-.006-.006-.006-.006-.006-.006-.007-.006-.006-.006-.007-.006-.007-.006-.007-.006-.007-.007-.006-.007-.007V9.4v-.007-.006-.007-.007-.007-.008-.007-.007-.007-.007-.007-.008-.007-.007-.008-.007-.008-.007-.008-.007-.008-.008-.007-.008-.008-.008-.008-.007-.008-.008-.008-.008-.008-.008-.008-.009-.008-.008-.008-.009-.008-.008-.009-.008-.008-.009-.008-.009-.009-.008-.009-.008-.01-.008-.009-.008-.01-.008-.009-.009-.009-.009-.009-.009-.009-.009-.009-.009-.01-.008-.01-.009-.01-.008-.01-.009-.01-.009-.01-.009-.01-.009-.01-.009-.01-.009-.01-.01-.009-.01-.01-.009-.01-.01-.01-.01-.01-.009-.01-.01-.01-.01-.01-.01-.01-.01-.01-.01-.01-.01-.01-.01-.01-.011-.01-.01-.01-.011-.01-.01-.011-.01-.01-.011-.01-.011-.01-.011-.01-.011-.01-.011-.01-.011-.01-.011-.011-.01-.011-.011-.01-.011V8.1v-.01-.012-.01-.011-.01-.012-.01-.011-.011-.011-.01-.012-.01-.012-.01-.011-.011-.011-.011-.011-.011-.011-.011-.011-.011-.011-.011-.011-.011-.011-.012-.01-.012-.01-.012-.011-.011-.011-.012-.01-.012-.011-.011-.011-.012-.01-.012-.011-.011-.012-.01-.012-.011-.012-.01-.012-.011-.012-.01-.012-.011-.012-.01-.012-.011-.012-.011-.011-.012-.01-.012-.012-.01-.012-.011-.012-.011-.011-.012-.011-.011-.012-.01-.012-.012-.01-.012-.011-.012V7.1v-.011-.012-.011-.011-.012-.01-.012-.011-.012-.011-.011-.012-.01-.012-.011-.012-.01-.012-.011-.012-.01-.012-.011-.012-.01-.012-.011-.011-.012-.01-.012-.011-.011-.011-.011-.012-.01-.012-.011-.011-.011-.011-.011-.011-.012-.01-.012-.01-.012-.01-.012-.01-.012-.01-.012-.01-.011-.011-.011-.011-.011-.011-.01-.012-.01-.011-.011-.011-.01-.011-.011V6.3v-.01-.011-.011-.01-.011-.011-.01-.011-.011-.01-.011-.01-.011-.01-.011-.01-.011-.01-.011-.01-.011-.01-.01-.011-.01-.01-.011-.01-.01-.01-.011-.01-.01-.01-.01-.01-.011-.01-.01-.01-.01-.01-.01-.01-.01-.01-.01-.01-.01-.01-.01-.009-.01-.01-.009-.01-.01-.009-.01-.01-.009-.01-.009-.01-.009-.009-.01-.009-.01-.008-.01-.009-.01-.008-.01-.009-.009-.01-.008-.01-.008-.01-.008-.009-.009-.009-.009-.008-.01-.008-.009-.008-.01-.008-.008-.009-.008-.009-.008-.009-.008-.009-.008-.008-.009-.008-.008-.008-.008-.008h-1.5V9.85h1.5zm0-4.606c0-.162.054-.42.196-.618.114-.159.311-.321.743-.321v-1.5c-.92 0-1.568.4-1.96.945a2.636 2.636 0 0 0-.48 1.494h1.5zm-.29 5.816h5.835v-1.5H4.016v1.5zm5.835 0c.196 0 .475-.053.726-.233.289-.208.484-.549.484-.977h-1.5a.27.27 0 0 1 .033-.117.353.353 0 0 1 .106-.124.244.244 0 0 1 .15-.05v1.501zm1.21-1.21v-.003-.002-.002-.003-.002-.003-.002-.003-.003-.003-.003-.003-.003-.003-.003-.003-.004V9.8v-.004-.003-.004-.004-.004-.003-.004-.004-.005-.004-.004-.004-.005-.004-.004-.005-.005-.004-.005-.005-.005-.005-.005-.005-.005-.005-.006-.005-.005-.006-.005-.006-.006-.006-.005-.006-.006-.006-.006-.006-.007-.006-.006-.006-.007-.006-.007-.007-.006-.007-.007-.007-.007-.007-.007V9.5v-.007-.007-.007-.008-.007-.007-.008-.008-.007-.008-.008-.007-.008-.008-.008-.008-.008-.008-.008-.009-.008-.008-.009-.008-.008-.009-.009-.008-.009-.009-.008-.01-.008-.01-.008-.01-.008-.01-.009-.009-.01-.009-.009-.01-.009-.01-.01-.009-.01-.01-.009-.01-.01-.01-.01-.01-.01-.01-.01-.01-.01-.01-.01-.011-.01-.011-.01-.011-.01-.011-.011-.01-.012-.01-.011-.011-.011-.01-.012-.011-.011-.011-.011-.012-.01-.012-.011-.012-.011-.012-.011-.012-.011-.012-.011-.012-.012-.011-.012-.012-.012-.012-.011-.012-.012-.012-.012-.013-.012-.012-.012-.012-.012-.013-.012-.012-.013-.012-.012-.013-.012-.013-.012-.013-.013-.012-.013-.013-.012-.013-.013-.013-.013-.012V8.1v-.013-.013-.013-.013-.013-.013-.013-.013-.014-.013-.013-.013-.013-.014-.013-.013-.014-.013-.013-.014-.013-.013-.014-.013-.014-.013-.014-.014-.013V7.7v-.013-.014-.014-.013-.014-.014-.014-.013-.014-.014-.014-.014-.013-.014-.014-.014-.014-.014-.014-.014-.014-.014-.014-.014-.014-.014-.014-.014-.014-.014-.015-.014-.014-.014-.014V7.2v-.015-.014-.014-.014-.014-.015V7.1v-.014-.015-.014-.014-.014-.015V7v-.014-.015-.014-.015-.014-.014-.015-.014-.015-.014-.014-.015-.014-.015-.014-.015-.014-.014-.015-.014-.015-.014-.015-.014-.015-.014-.015-.014-.015-.014-.015-.014-.015-.014-.015-.014-.015-.014-.015-.014-.015-.014-.015-.014-.015-.014-.015-.014-.015-.014-.015-.014-.015-.014-.014-.015-.014-.015-.014-.015-.014-.015-.014-.014-.015-.014-.015-.014-.014-.015-.014-.015-.014-.014-.015-.014-.014-.015-.014-.014-.014-.015-.014-.014-.014-.015-.014-.014-.014-.015-.014-.014-.014-.014-.014-.014-.014-.015-.014-.014-.014-.014-.014-.014-.014-.014-.014-.014-.013-.014-.014-.014-.014-.014-.014-.013-.014-.014-.014-.013-.014-.014-.013-.014-.014-.013-.014-.013-.014-.013-.014-.013-.014-.013-.014-.013-.013-.014-.013-.013V5v-.014-.013-.013-.013-.013-.014-.013-.013-.013-.013-.013-.013-.013-.013-.012-.013-.013-.013-.013-.012-.013-.013-.012-.013-.013-.012-.013-.012-.013-.012-.013-.012-.012-.013-.012-.012-.012-.012-.013-.012-.012-.012-.012-.012-.012-.012-.012-.011-.012-.012-.012-.012-.011-.012-.011-.012-.011-.012-.011-.012-.011-.012-.01-.012V4.2 4.19v-.012-.01-.012-.01-.012-.01-.012-.01-.011-.011-.01-.011-.011-.01-.011-.01h-1.5V9.85h1.5zm0-5.835c0-.197-.053-.475-.233-.726a1.175 1.175 0 0 0-.977-.484v1.5a.27.27 0 0 1-.117-.033.353.353 0 0 1-.124-.106.244.244 0 0 1-.05-.15h1.501zm-1.21-1.21H5.245v1.5H9.85v-1.5zm10.133 8.255c.197 0 .475-.053.726-.233.29-.208.485-.549.485-.977h-1.5a.27.27 0 0 1 .033-.117.354.354 0 0 1 .106-.124.244.244 0 0 1 .15-.05v1.501zm1.21-1.21v-.003-.002-.002-.002-.003-.002-.003-.002-.003-.003-.003-.002-.003-.003-.003-.003-.003-.003V9.8v-.004-.003-.003-.004-.003-.004-.003-.004-.004-.003-.004-.004-.004-.004-.004-.004-.004-.004-.004-.004-.004-.005-.004-.005-.004-.005-.004-.005-.004-.005-.005-.005-.004-.005-.005-.005-.005-.005-.006-.005-.005-.005-.006-.005-.005-.006-.005-.006-.006-.005-.006-.006-.005-.006-.006-.006-.006-.006-.006-.006-.006-.006-.007-.006-.006-.006-.007-.006-.007-.006-.007-.006-.007-.007-.006-.007-.007V9.4v-.007-.006-.007-.007-.007-.008-.007-.007-.007-.007-.007-.008-.007-.007-.008-.007-.008-.007-.008-.007-.008-.008-.007-.008-.008-.008-.008-.007-.008-.008-.008-.008-.008-.008-.008-.009-.008-.008-.008-.009-.008-.008-.009-.008-.008-.009-.008-.009-.009-.008-.009-.008-.01-.008-.009-.008-.01-.008-.009-.009-.009-.009-.009-.009-.009-.009-.009-.009-.01-.008-.01-.009-.01-.008-.01-.009-.01-.009-.01-.009-.01-.009-.01-.009-.01-.009-.01-.01-.009-.01-.01-.009-.01-.01-.01-.01-.01-.009-.01-.01-.01-.01-.01-.01-.01-.01-.01-.01-.01-.01-.01-.01-.01-.011-.01-.01-.01-.011-.01-.01-.011-.01-.01-.011-.01-.011-.01-.011-.01-.011-.01-.011-.01-.011-.01-.011-.011-.01-.011-.011-.01-.011V8.1v-.01-.012-.01-.011-.01-.012-.01-.011-.011-.011-.01-.012-.01-.012-.01-.011-.011-.011-.011-.011-.011-.011-.011-.011-.011-.011-.011-.011-.011-.011-.012-.01-.012-.01-.012-.011-.011-.011-.012-.01-.012-.011-.011-.011-.012-.01-.012-.011-.011-.012-.01-.012-.011-.012-.01-.012-.011-.012-.01-.012-.011-.012-.01-.012-.011-.012-.011-.011-.012-.01-.012-.012-.01-.012-.011-.012-.011-.011-.012-.011-.011-.012-.01-.012-.012-.01-.012-.011-.012V7.1v-.011-.012-.011-.011-.012-.01-.012-.011-.012-.011-.011-.012-.01-.012-.011-.012-.01-.012-.011-.012-.01-.012-.011-.012-.01-.012-.011-.011-.012-.01-.012-.011-.011-.011-.011-.012-.01-.012-.011-.011-.011-.011-.011-.011-.012-.01-.012-.01-.012-.01-.012-.01-.012-.01-.012-.01-.011-.011-.011-.011-.011-.011-.01-.012-.01-.011-.011-.011-.01-.011-.011V6.3v-.01-.011-.011-.01-.011-.011-.01-.011-.011-.01-.011-.01-.011-.01-.011-.01-.011-.01-.011-.01-.011-.01-.01-.011-.01-.01-.011-.01-.01-.01-.011-.01-.01-.01-.01-.01-.011-.01-.01-.01-.01-.01-.01-.01-.01-.01-.01-.01-.01-.01-.01-.009-.01-.01-.009-.01-.01-.009-.01-.01-.009-.01-.009-.01-.009-.009-.01-.009-.01-.008-.01-.009-.01-.008-.01-.009-.009-.01-.008-.01-.008-.01-.008-.009-.009-.009-.009-.008-.01-.008-.009-.008-.01-.008-.008-.009-.008-.009-.008-.009-.008-.009-.008-.008-.009-.008-.008-.008-.008-.008h-1.5V9.85h1.5zm0-4.606c0-.402-.114-.987-.479-1.494-.392-.545-1.04-.945-1.96-.945v1.5c.432 0 .629.162.743.321.142.197.197.456.197.618h1.5zm-1.21 4.316H14.15v1.5h5.834v-1.5zm-5.834 0a.244.244 0 0 1 .15.05.353.353 0 0 1 .106.123.27.27 0 0 1 .033.117h-1.5c0 .428.195.769.485.977.25.18.529.233.726.233v-1.5zm.289.29v-.003-.002-.002-.003-.002-.003-.002-.003-.003-.003-.003-.003-.003-.003-.003-.003-.004V9.8v-.004-.003-.004-.004-.004-.003-.004-.004-.005-.004-.004-.004-.005-.004-.004-.005-.005-.004-.005-.005-.005-.005-.005-.005-.005-.005-.006-.005-.005-.006-.005-.006-.006-.006-.005-.006-.006-.006-.006-.006-.007-.006-.006-.006-.007-.006-.007-.007-.006-.007-.007-.007-.007-.007-.007V9.5v-.007-.007-.007-.008-.007-.007-.008-.008-.007-.008-.008-.007-.008-.008-.008-.008-.008-.008-.008-.009-.008-.008-.009-.008-.008-.009-.009-.008-.009-.009-.008-.01-.008-.01-.008-.01-.008-.01-.009-.009-.01-.009-.009-.01-.009-.01-.01-.009-.01-.01-.009-.01-.01-.01-.01-.01-.01-.01-.01-.01-.01-.01-.01-.011-.01-.011-.01-.011-.01-.011-.011-.01-.012-.01-.011-.011-.011-.01-.012-.011-.011-.011-.011-.012-.01-.012-.011-.012-.011-.012-.011-.012-.011-.012-.011-.012-.012-.011-.012-.012-.012-.012-.011-.012-.012-.012-.012-.013-.012-.012-.012-.012-.012-.013-.012-.012-.013-.012-.012-.013-.012-.013-.012-.013-.013-.012-.013-.013-.012-.013-.013-.013-.013-.012V8.1v-.013-.013-.013-.013-.013-.013-.013-.013-.014-.013-.013-.013-.013-.014-.013-.013-.014-.013-.013-.014-.013-.013-.014-.013-.014-.013-.014-.014-.013V7.7v-.013-.014-.014-.013-.014-.014-.014-.013-.014-.014-.014-.014-.013-.014-.014-.014-.014-.014-.014-.014-.014-.014-.014-.014-.014-.014-.014-.014-.014-.014-.015-.014-.014-.014-.014V7.2v-.015-.014-.014-.014-.014-.015V7.1v-.014-.015-.014-.014-.014-.015V7v-.014-.015-.014-.015-.014-.014-.015-.014-.015-.014-.014-.015-.014-.015-.014-.015-.014-.014-.015-.014-.015-.014-.015-.014-.015-.014-.015-.014-.015-.014-.015-.014-.015-.014-.015-.014-.015-.014-.015-.014-.015-.014-.015-.014-.015-.014-.015-.014-.015-.014-.015-.014-.015-.014-.014-.015-.014-.015-.014-.015-.014-.015-.014-.014-.015-.014-.015-.014-.014-.015-.014-.015-.014-.014-.015-.014-.014-.015-.014-.014-.014-.015-.014-.014-.014-.015-.014-.014-.014-.015-.014-.014-.014-.014-.014-.014-.014-.015-.014-.014-.014-.014-.014-.014-.014-.014-.014-.014-.013-.014-.014-.014-.014-.014-.014-.013-.014-.014-.014-.013-.014-.014-.013-.014-.014-.013-.014-.013-.014-.013-.014-.013-.014-.013-.014-.013-.013-.014-.013-.013V5v-.014-.013-.013-.013-.013-.014-.013-.013-.013-.013-.013-.013-.013-.013-.012-.013-.013-.013-.013-.012-.013-.013-.012-.013-.013-.012-.013-.012-.013-.012-.013-.012-.012-.013-.012-.012-.012-.012-.013-.012-.012-.012-.012-.012-.012-.012-.012-.011-.012-.012-.012-.012-.011-.012-.011-.012-.011-.012-.011-.012-.011-.012-.01-.012V4.2 4.19v-.012-.01-.012-.01-.012-.01-.012-.01-.011-.011-.01-.011-.011-.01-.011-.01h-1.5V9.85h1.5zm0-5.835a.244.244 0 0 1-.05.15.354.354 0 0 1-.123.107.27.27 0 0 1-.116.033v-1.5c-.43 0-.77.195-.978.484-.18.251-.233.53-.233.726h1.5zm-.29.29h4.607v-1.5H14.15v1.5zM4.017 12.939c-.197 0-.475.053-.726.233-.289.209-.484.549-.484.978h1.5a.27.27 0 0 1-.033.116.354.354 0 0 1-.106.124.244.244 0 0 1-.15.05v-1.501zm-1.21 1.21V18.757h1.5v-.008-.009-.008-.008-.008-.009-.008-.008-.009-.008-.008-.009-.008-.009-.008-.01-.008-.008-.01-.008-.009-.008-.01-.008-.009-.009-.009-.009-.009-.009-.009-.009-.009-.009-.01-.008-.01-.009-.009-.01-.009-.009-.01-.009-.01-.009-.01-.009-.01-.009-.01-.009-.01-.01-.009-.01-.01-.009-.01-.01-.01-.01-.009-.01-.01-.01-.01-.01-.01-.01-.01-.01-.01-.01-.01-.01-.01-.01-.01-.01-.011-.01-.01-.011-.01-.01-.011-.01-.01-.011-.01-.011-.01-.01-.011-.011-.01-.011-.01-.011-.01-.011-.011-.01-.011-.011-.01-.011-.011-.01-.012-.01-.011-.01-.012-.01-.011-.011-.011-.01-.012-.01-.012-.01-.011-.011-.011-.011-.011-.011-.011-.011-.011-.011-.011-.011-.011-.011-.011-.012-.01-.012-.01-.012-.011-.011-.011-.011-.012-.01-.012-.011-.011-.012-.01-.012-.011-.011-.012-.01-.012-.011-.011-.012-.01-.012-.011-.012-.011-.011-.011-.012-.011-.011-.012-.01-.012-.011-.012-.011-.011-.012-.011-.011-.012-.01-.012-.012-.01-.012-.012-.01-.012-.011-.012-.011-.011-.012-.011-.011-.012-.01-.012-.012-.01-.012-.011-.012-.01-.012-.011-.012-.011-.011-.011-.012-.011-.011-.012-.01-.012-.011-.011-.012-.01-.012-.011-.011-.012-.01-.012-.011-.011-.011-.011-.012-.01-.012-.011-.011-.011-.011-.011-.011-.011-.011-.011-.012-.01-.012-.01-.012-.01-.012-.01-.011-.011-.011-.011-.011-.01-.012-.01-.011-.011-.011-.01-.012-.01-.011-.01-.012-.01-.011-.01-.011-.011-.01-.011-.01-.011-.011-.01-.011-.01-.011-.01-.011-.01-.011-.01-.011-.01-.01-.011-.01-.01-.011-.01-.01-.01-.011-.01-.01-.01-.01-.01-.01-.011-.01-.01-.01-.01-.01-.01-.01-.01-.01-.01-.01-.01-.009-.01-.01-.01-.009-.01-.01-.009-.01-.01-.009-.01-.009-.01-.009-.009-.01-.009-.01-.008-.01-.009-.01-.008-.01-.009-.009-.009-.01-.008-.01-.008-.01-.008-.009-.009-.009-.008-.01-.008-.009-.008-.009-.009-.008-.009-.008-.009-.008-.009-.008-.009-.008-.008-.008-.009-.008-.008-.008-.008-.008-.009-.008-.008-.007-.008-.008-.008-.008-.008-.007-.008-.008-.007-.008-.008-.007-.008-.007-.007-.008-.007-.007-.008-.007-.007-.007-.007-.007-.007-.007-.007-.007-.007-.007-.007-.006-.007-.007-.006-.007-.007-.006-.006-.007-.006-.007-.006-.006-.006-.007-.006-.006-.006-.006-.006-.006-.006-.005-.006-.006-.006-.005-.006-.005-.006-.005-.006-.005-.005-.006-.005-.005-.005-.005-.005-.005-.005-.005-.005-.005-.005-.004-.005-.005-.004-.005-.004-.005-.004-.004-.005-.004-.004-.004-.004-.004-.004-.004-.004-.004-.004-.003-.004-.003-.004-.004-.003-.003-.004-.003-.003-.004-.003-.003-.003-.003-.003-.002-.003-.003-.003-.002-.003-.002-.003-.002-.003-.002-.002-.002h-1.5zm0 4.607c0 .401.114.987.479 1.493.392.545 1.04.946 1.96.946v-1.5c-.432 0-.629-.163-.743-.322a1.14 1.14 0 0 1-.196-.617h-1.5zm1.21-4.317h5.835v-1.5H4.016v1.5zm5.835 0a.244.244 0 0 1-.15-.05.354.354 0 0 1-.107-.123.27.27 0 0 1-.033-.116h1.5c0-.43-.195-.77-.484-.978-.251-.18-.53-.233-.726-.233v1.5zm-.29-.29V19.984h1.5v-.01-.01-.01-.011-.011-.01-.012-.01-.011-.011-.011-.011-.011-.011-.011-.011-.012-.01-.012-.011-.012-.011-.011-.012-.011-.012-.011-.012-.012-.011-.012-.012-.011-.012-.012-.012-.012-.012-.012-.012-.012-.012-.012-.012-.013-.012-.012-.012-.012-.013-.012-.013-.012-.013-.012-.013-.012-.013-.012-.013-.013-.012-.013-.013-.013-.012-.013-.013-.013-.013-.013-.013-.013-.013-.013-.013-.013-.014-.013-.013-.013V19v-.014-.013-.013-.014-.013-.013-.014-.013-.014-.013-.014-.013-.013-.014-.014-.013-.014-.014-.013-.014-.014-.013-.014-.014-.014-.013-.014-.014-.014-.014-.014-.013-.014-.014-.014-.014-.014-.014-.014-.014-.014-.014-.014-.014-.014-.014-.015-.014-.014-.014-.014-.014-.015-.014-.014-.014-.015-.014-.014-.014-.015-.014-.014-.014-.015-.014-.014-.015-.014-.015-.014-.014-.015-.014-.015-.014-.014-.015-.014-.015-.014-.014-.015-.014-.015-.014-.015-.014-.015-.014-.015-.014-.015-.014-.015-.014-.015-.014-.015-.014-.015-.014-.015-.014-.015-.014-.015-.014-.015-.014-.015-.014-.015-.014-.015-.014-.015-.014-.015-.014-.014-.015-.014-.015-.014-.015-.014-.015-.014-.014-.015-.014-.015-.014-.014-.015-.014-.015-.014-.014V17v-.014-.014-.015-.014-.014-.014-.015-.014-.014-.015-.014-.014-.014-.014-.015-.014-.014-.014-.014-.014-.015-.014-.014-.014-.014-.014-.014-.014-.014-.014-.014-.014-.014-.014-.014-.014-.013-.014-.014-.014-.014-.013-.014-.014-.014-.013-.014-.014-.013-.014-.014-.013-.014-.013-.014-.013-.014-.013-.014-.013-.014-.013-.013-.014-.013-.013-.013-.014-.013-.013-.013-.013-.013-.014-.013-.013-.013-.013-.012-.013-.013-.013-.013-.013-.013-.012-.013-.013-.012-.013-.013-.012-.013-.012-.013-.012-.013-.012-.012-.013-.012-.012-.013-.012-.012-.012-.012-.012-.012-.012-.012-.012-.012-.012-.012-.012-.011-.012-.012-.011-.012-.012-.011-.012-.011-.012-.011-.011-.012-.011-.011-.011-.012-.01-.012-.01-.012-.01-.012-.01-.011-.011-.011-.01-.011-.011-.01-.011-.01-.011-.01-.01-.011-.01-.01-.01-.011-.01-.01-.01-.01-.01-.01-.01-.01-.01-.01-.009-.01-.009-.01-.009-.01-.009-.009-.01-.008-.01-.008-.01-.009-.009-.008-.01-.008-.009-.009-.008-.009-.008-.009-.008-.009-.008-.008-.008-.009-.008-.008-.008-.008-.008-.008-.007-.008-.008-.007-.008-.007-.008-.007-.007-.008-.007-.007-.007-.007-.007-.007-.007-.007-.006-.007-.007-.006-.007-.006-.007-.006-.006-.006-.007-.006-.006-.006-.005-.006-.006-.006-.005-.006-.005-.006-.005-.005-.006-.005-.005-.005-.005-.005-.005-.004-.005-.005-.004-.005-.004-.005-.004-.004-.004-.004-.004-.004-.004-.004-.004-.003-.004-.004-.003-.003-.004-.003-.003-.003-.003-.003-.003-.003-.002-.003-.003-.002-.003-.002-.002-.002h-1.5zm0 5.835a.244.244 0 0 1 .05-.15.354.354 0 0 1 .123-.106.27.27 0 0 1 .117-.033v1.5c.428 0 .769-.196.977-.485.18-.25.233-.53.233-.726h-1.5zm.29-.29H5.245v1.5H9.85v-1.5z" fill="url(#paint0_radial_1387_6065)"/><defs><radialGradient id="paint0_radial_1387_6065" cx="0" cy="0" r="1" gradientUnits="userSpaceOnUse" gradientTransform="rotate(33.596 1.893 3.86) scale(22.4144 181.028)"><stop stop-color="#59F6F6"/><stop offset=".573" stop-color="#B891E9"/><stop offset="1" stop-color="#5D85D2"/></radialGradient></defs></svg>