<svg xmlns="http://www.w3.org/2000/svg" width="80" height="80" viewBox="0 0 80 80"><defs><style>.b{fill:none;stroke:#fff;stroke-linecap:round;stroke-linejoin:round;stroke-width:3px}</style></defs><g opacity=".8"><path class="b" d="M48.053 39.457a7.855 7.855 0 1 1-7.855-7.855 7.855 7.855 0 0 1 7.855 7.855z"/><path class="b" d="M59.574 47.312a4.32 4.32 0 0 0 .864 4.765l.157.157a5.24 5.24 0 1 1-7.41 7.41l-.157-.157a4.355 4.355 0 0 0-7.384 3.09v.445a5.237 5.237 0 0 1-10.473 0v-.236a4.32 4.32 0 0 0-2.828-3.954 4.32 4.32 0 0 0-4.765.864l-.157.157a5.24 5.24 0 1 1-7.41-7.41l.157-.157a4.355 4.355 0 0 0-3.09-7.384h-.445a5.237 5.237 0 0 1 0-10.473h.236a4.32 4.32 0 0 0 3.954-2.828 4.32 4.32 0 0 0-.864-4.765l-.163-.157a5.24 5.24 0 1 1 7.41-7.41l.157.157a4.32 4.32 0 0 0 4.765.864h.209a4.32 4.32 0 0 0 2.618-3.954v-.444a5.237 5.237 0 0 1 10.473 0v.236a4.355 4.355 0 0 0 7.384 3.09l.157-.157a5.24 5.24 0 1 1 7.41 7.41l-.157.157a4.32 4.32 0 0 0-.864 4.765v.209a4.32 4.32 0 0 0 3.954 2.618h.445a5.237 5.237 0 0 1 0 10.473h-.236a4.32 4.32 0 0 0-3.954 2.618z"/></g><path fill="none" d="M0 0h80v80H0z"/></svg>