<svg xmlns="http://www.w3.org/2000/svg" width="31.57" height="31.534" viewBox="0 0 31.57 31.534"><defs><clipPath id="a"><path fill="none" d="M0 0h31.57v31.534H0z"/></clipPath></defs><g clip-path="url(#a)"><path d="M4.993 0h21.619a4.865 4.865 0 0 1 2.341.551 3.536 3.536 0 0 1 1.79 1.649.135.135 0 0 0 .138.138 4.755 4.755 0 0 1 .689 2.482 4.249 4.249 0 0 1-.689 2.48L17.249 30.708a1.582 1.582 0 0 1-1.515.826 1.9 1.9 0 0 1-1.515-.826L.862 7.3a4.645 4.645 0 0 1-.826-2.343 4.306 4.306 0 0 1 .551-2.616A3.35 3.35 0 0 1 2.652.551 4.1 4.1 0 0 1 4.993 0m9.088 3.3H4.993c-.551 0-.826 0-.964.138a1.075 1.075 0 0 0-.551.551 1.032 1.032 0 0 0-.138.689c0 .138.138.275.413.826l10.328 17.9zm3.3 0v20.247L27.852 5.508a1.747 1.747 0 0 0 .138-.826 1.032 1.032 0 0 0-.138-.689c-.138-.138-.138-.275-.275-.275l-.138-.138a2.042 2.042 0 0 0-.964-.138h-9.089z"  fill-rule="evenodd"/></g></svg>
