<svg width="21" height="20" viewBox="0 0 21 20"  xmlns="http://www.w3.org/2000/svg"><g clip-path="url(#clip0_1403_13893)"><path fill-rule="evenodd" clip-rule="evenodd" d="M5.083 12.916V4.583h6.667v8.333H5.083zm-1.25-8.75c0-.46.374-.833.834-.833h7.5c.46 0 .833.373.833.833v9.167c0 .46-.373.833-.833.833h-7.5a.833.833 0 0 1-.833-.833V4.166zm3.334 11.667V15h1.25v.416h6.667V7.083h-1.25v-1.25H15.5c.46 0 .834.373.834.833v9.167c0 .46-.374.833-.834.833H8a.833.833 0 0 1-.833-.833z" /></g><defs><clipPath id="clip0_1403_13893"><path transform="translate(.5)" d="M0 0h20v20H0z"/></clipPath></defs></svg>
