<svg width="105" height="25" viewBox="0 0 105 25" fill="none" xmlns="http://www.w3.org/2000/svg"><path d="M6.703 11.37h2.27v9.35a8.552 8.552 0 0 1-3.442-.55 7.66 7.66 0 0 1-2.82-1.928C1.905 17.37 1.266 16.28.794 14.97c-.472-1.31-.708-2.828-.708-4.553 0-1.53.184-2.889.55-4.077.366-1.188.854-2.19 1.465-3.003.618-.822 1.33-1.445 2.136-1.868A5.363 5.363 0 0 1 6.764.834c.382 0 .757.041 1.123.123a7.07 7.07 0 0 1 1.184.378L8.045 3.3a2.584 2.584 0 0 0-.61-.146 3.72 3.72 0 0 0-.622-.061c-.538 0-1.067.158-1.587.476-.521.317-.99.785-1.404 1.404-.407.618-.74 1.387-1.001 2.307-.252.911-.379 1.965-.379 3.161 0 1.066.106 2.03.318 2.893.211.855.504 1.604.879 2.247.374.634.822 1.16 1.342 1.574.521.415 1.095.712 1.722.891V11.37zm5.615-4.066l1.843 1.282a6.3 6.3 0 0 1 1.624-.916 4.849 4.849 0 0 1 1.794-.341v2.27c-.65 0-1.229.07-1.733.208a2.765 2.765 0 0 0-1.294.793v9.9h-2.234V7.304zM24 20.732c-.61 0-1.196-.138-1.758-.415-.561-.277-1.062-.696-1.501-1.257-.432-.562-.777-1.262-1.038-2.1-.26-.838-.39-1.819-.39-2.942 0-1.123.13-2.104.39-2.942.26-.838.606-1.538 1.038-2.1.44-.561.94-.98 1.501-1.257a3.929 3.929 0 0 1 3.516 0c.561.277 1.058.696 1.49 1.258.438.561.788 1.261 1.049 2.1.26.837.39 1.818.39 2.941 0 1.123-.13 2.104-.39 2.942-.26.838-.61 1.538-1.05 2.1-.431.561-.928.98-1.49 1.257a3.928 3.928 0 0 1-1.757.415zm0-2.136c.293 0 .582-.078.867-.232.284-.163.54-.423.769-.782.236-.358.423-.83.561-1.416.147-.585.22-1.302.22-2.148 0-.846-.073-1.558-.22-2.136-.138-.586-.325-1.058-.561-1.416-.228-.366-.485-.627-.77-.781A1.73 1.73 0 0 0 24 9.44a1.73 1.73 0 0 0-.867.245c-.284.154-.545.415-.78.78-.229.359-.416.83-.563 1.417-.138.578-.207 1.29-.207 2.136 0 .846.07 1.563.208 2.148.146.586.333 1.058.561 1.416.236.359.497.619.781.782.285.154.574.232.867.232zm7.507-11.06h2.173v8.447c0 1.701.663 2.552 1.99 2.552.447 0 .846-.09 1.196-.269.358-.187.66-.44.904-.757V7.536h2.172v13.208l-1.61-1.147a5.889 5.889 0 0 1-1.392.78 4.576 4.576 0 0 1-1.783.343c-.504 0-.98-.09-1.428-.269a3.464 3.464 0 0 1-1.16-.806 4.046 4.046 0 0 1-.78-1.318c-.188-.529-.282-1.135-.282-1.819V7.536zm14.16 17.285h-2.172V7.292l1.684.83c.31-.26.651-.46 1.026-.598.374-.147.777-.22 1.208-.22.627 0 1.22.13 1.782.39.57.261 1.066.664 1.49 1.21.423.545.756 1.24 1 2.087.253.846.379 1.855.379 3.027 0 1.172-.126 2.181-.379 3.027-.244.847-.577 1.543-1 2.088-.424.545-.92.948-1.49 1.208-.561.26-1.155.39-1.782.39-.317 0-.622-.04-.915-.121a3.713 3.713 0 0 1-.83-.342v4.553zm0-6.75a2.29 2.29 0 0 0 1.6.61c.333 0 .655-.073.964-.22.31-.146.582-.394.818-.744.244-.358.44-.834.586-1.428.146-.603.22-1.36.22-2.27 0-.912-.074-1.665-.22-2.26-.147-.601-.342-1.078-.586-1.428-.236-.358-.509-.61-.818-.756-.31-.147-.63-.22-.964-.22-.627 0-1.16.207-1.6.623v8.093zm9.632-.489c.399.236.814.448 1.245.635.44.188.92.281 1.44.281.318 0 .623-.045.916-.134a2.012 2.012 0 0 0 1.294-1.123c.13-.293.195-.64.195-1.038a3.33 3.33 0 0 0-.11-.83 4.12 4.12 0 0 0-.342-.915 8.207 8.207 0 0 0-.622-1.087c-.252-.39-.57-.826-.952-1.306l-1.575-1.99c-.39-.496-.724-.968-1-1.416a10.15 10.15 0 0 1-.66-1.282 7.071 7.071 0 0 1-.379-1.184 5.968 5.968 0 0 1-.11-1.123c0-.61.098-1.172.294-1.684.195-.521.48-.969.854-1.343.374-.383.826-.68 1.355-.891.537-.212 1.143-.318 1.819-.318.537 0 1.078.074 1.623.22a6.032 6.032 0 0 1 1.6.672l-.977 1.892a5.41 5.41 0 0 0-.928-.44 2.902 2.902 0 0 0-1.086-.195c-.667 0-1.2.191-1.6.574-.398.374-.597.907-.597 1.599 0 .187.02.382.06.586.041.195.11.41.208.647.106.236.244.496.415.78.18.286.403.607.672.965l2.282 3.003c.293.39.57.773.83 1.148a7.7 7.7 0 0 1 .672 1.135c.187.382.333.79.44 1.22.113.424.17.884.17 1.38 0 .732-.118 1.392-.354 1.978a4.248 4.248 0 0 1-.989 1.477c-.423.406-.927.72-1.513.94a5.502 5.502 0 0 1-1.905.317c-.716 0-1.4-.106-2.05-.317a6.479 6.479 0 0 1-1.685-.806l1.05-2.027zm12.366 7.24h-2.173V7.291l1.684.83c.31-.26.651-.46 1.026-.598.374-.147.777-.22 1.208-.22.627 0 1.22.13 1.782.39.57.261 1.067.664 1.49 1.21.423.545.757 1.24 1 2.087.253.846.379 1.855.379 3.027 0 1.172-.126 2.181-.378 3.027-.245.847-.578 1.543-1.001 2.088-.424.545-.92.948-1.49 1.208-.561.26-1.155.39-1.782.39-.317 0-.622-.04-.915-.121a3.714 3.714 0 0 1-.83-.342v4.553zm0-6.751a2.29 2.29 0 0 0 1.599.61c.333 0 .655-.073.964-.22.31-.146.582-.394.818-.744.244-.358.44-.834.586-1.428.146-.603.22-1.36.22-2.27 0-.912-.074-1.665-.22-2.26-.147-.601-.342-1.078-.586-1.428-.236-.358-.509-.61-.818-.756-.31-.147-.63-.22-.964-.22-.627 0-1.16.207-1.6.623v8.093zm8.874-1.624c0-1.318.464-2.356 1.392-3.112.936-.757 2.31-1.18 4.126-1.27v-.256c0-.765-.183-1.364-.55-1.795-.358-.431-.85-.647-1.477-.647a3.07 3.07 0 0 0-1.013.183 5.703 5.703 0 0 0-1.025.464l-.83-1.953a6.675 6.675 0 0 1 1.61-.574 7.246 7.246 0 0 1 1.527-.183c.586 0 1.119.102 1.599.305.48.204.891.497 1.233.88.342.374.606.833.793 1.379.188.545.281 1.163.281 1.855v9.009l-1.599-.781c-.31.244-.655.435-1.038.573a3.494 3.494 0 0 1-1.22.208c-.554 0-1.066-.11-1.538-.33a3.925 3.925 0 0 1-1.209-.915 4.194 4.194 0 0 1-.781-1.355 4.944 4.944 0 0 1-.28-1.685zm2.21.037c0 .301.044.582.134.842.09.252.216.476.378.672a1.737 1.737 0 0 0 1.343.598c.285 0 .558-.053.818-.159.26-.106.472-.24.635-.403v-4.016a4.88 4.88 0 0 0-1.392.159 2.852 2.852 0 0 0-1.038.488 2.173 2.173 0 0 0-.659.781c-.146.301-.22.647-.22 1.038zm13.11 4.248a4.296 4.296 0 0 1-1.88-.415c-.578-.277-1.082-.696-1.514-1.257-.423-.562-.757-1.262-1-2.1-.237-.838-.355-1.819-.355-2.942 0-1.123.118-2.104.354-2.942.245-.838.578-1.538 1.001-2.1.432-.561.936-.98 1.514-1.257a4.296 4.296 0 0 1 1.88-.415c.496 0 .972.078 1.428.232.464.155.875.338 1.233.55l-.915 1.892a4.488 4.488 0 0 0-.818-.367 2.6 2.6 0 0 0-.928-.17c-.317 0-.627.08-.928.244-.301.162-.574.427-.818.793-.236.366-.427.842-.573 1.428-.139.578-.208 1.282-.208 2.112 0 .83.07 1.538.208 2.124.146.578.337 1.05.573 1.416.244.366.517.63.818.794.301.162.61.244.928.244.317 0 .627-.053.928-.159.309-.114.581-.24.817-.378l.916 1.892a6.391 6.391 0 0 1-1.233.549 4.415 4.415 0 0 1-1.428.232zm9.412 0c-.7 0-1.347-.15-1.941-.452a4.667 4.667 0 0 1-1.538-1.33c-.432-.586-.77-1.298-1.014-2.136-.244-.847-.366-1.807-.366-2.881 0-1.099.126-2.063.378-2.893.253-.83.59-1.522 1.014-2.076.431-.553.923-.968 1.477-1.245a3.903 3.903 0 0 1 1.745-.415c.7 0 1.315.183 1.844.55.529.358.948.87 1.257 1.538.309.667.5 1.473.574 2.417.073.936.008 1.981-.196 3.137l-5.835-.012c.066.7.192 1.29.379 1.77.195.472.423.854.683 1.147.269.293.558.505.867.635a2.511 2.511 0 0 0 1.489.122 3.6 3.6 0 0 0 .55-.159 3.412 3.412 0 0 0 .854-.451l.83 1.855a4.862 4.862 0 0 1-.622.33c-.236.105-.489.199-.757.28a6.209 6.209 0 0 1-.83.196 4.986 4.986 0 0 1-.842.073zm1.232-7.837c.041-.684.025-1.245-.048-1.685-.066-.447-.171-.801-.318-1.062-.138-.268-.309-.451-.512-.549a1.387 1.387 0 0 0-.647-.159c-.586 0-1.091.293-1.514.88-.415.577-.676 1.436-.781 2.575h3.82z" fill="url(#paint0_radial_1387_8561)"/><defs><radialGradient id="paint0_radial_1387_8561" cx="0" cy="0" r="1" gradientUnits="userSpaceOnUse" gradientTransform="rotate(10.894 57.698 -47.778) scale(120.456 391.73)"><stop stop-color="#59F6F6"/><stop offset=".573" stop-color="#B891E9"/><stop offset="1" stop-color="#5D85D2"/></radialGradient></defs></svg>