<svg width="24" height="24" viewBox="0 0 24 24" fill="none" xmlns="http://www.w3.org/2000/svg"><path d="M3.242 12.047c1.636-.885 3.464-1.623 5.17-2.365 2.938-1.215 5.887-2.41 8.865-3.521.58-.19 1.62-.375 1.723.468-.056 1.192-.286 2.378-.444 3.563-.4 2.607-.863 5.206-1.314 7.804-.156.866-1.26 1.314-1.968.76-1.7-1.126-3.412-2.241-5.09-3.394-.55-.548-.04-1.335.45-1.726 1.4-1.353 2.885-2.503 4.212-3.926.358-.848-.7-.134-1.049.085-1.916 1.296-3.786 2.67-5.806 3.81-1.032.556-2.235.08-3.267-.23-.925-.377-2.28-.755-1.482-1.328z" fill="url(#paint0_radial_1371_5722)"/><defs><radialGradient id="paint0_radial_1371_5722" cx="0" cy="0" r="1" gradientUnits="userSpaceOnUse" gradientTransform="rotate(28.358 -4.867 5.345) scale(20.0996 147.213)"><stop stop-color="#59F6F6"/><stop offset=".573" stop-color="#B891E9"/><stop offset="1" stop-color="#5D85D2"/></radialGradient></defs></svg>