<svg xmlns="http://www.w3.org/2000/svg" xmlns:xlink="http://www.w3.org/1999/xlink" width="76" height="76" viewBox="0 0 76 76"><defs><style>.a{fill:none;}.b{clip-path:url(#a);}.c{fill:#fff;}</style><clipPath id="a"><rect class="a" width="71.844" height="58.723"/></clipPath></defs><g transform="translate(-82 -28)"><g transform="translate(84 36.001)"><g class="b" transform="translate(0 -0.001)"><path class="c" d="M70.895,23.175c-.665-.242-1.493.152-2.818-.374-.055-.022-.278-.084-.315-.095a35.362,35.362,0,0,0-7.585-2.045,21.6,21.6,0,0,0-17.7,5.329c.467-.548.944-1.093,1.465-1.622,5.534-5.611,13.076-8.945,18.853-10.5,1.21-.366,1.634.3,2.737.26a1.251,1.251,0,0,0,0-2.5c-1.315-.008-1.474.947-2.909,1.379-6.068,1.61-13.706,5.122-19.278,10.771a29.725,29.725,0,0,0-2.656,3.126A39.987,39.987,0,0,1,57.684,9.318c.678-.388,1.107-.137,2.064-.281A1.327,1.327,0,0,0,61,7.787a1.24,1.24,0,0,0-1.25-1.251c-1.584.036-1.544,1.475-2.467,2.036A41.931,41.931,0,0,0,38.842,28.161,49.017,49.017,0,0,1,51.657,6.136c.566-.6,1.483-.337,2.233-.986a1.159,1.159,0,0,0,.366-.884,1.25,1.25,0,0,0-1.25-1.251,1.327,1.327,0,0,0-.893.375c-.594.542-.573,1.623-1.091,2.131a54.537,54.537,0,0,0-13.615,23.3c.84-7.439,2.686-16.683,6.591-24.151.542-1.145,2.2-1.493,2.168-2.635A1.262,1.262,0,0,0,44.917.781a1.284,1.284,0,0,0-1.25,1.251,8.083,8.083,0,0,1-.4,2.222C38.758,12.73,37.073,21.919,36.4,29.8L36.32,3.828a2.96,2.96,0,0,1,.6-1.846,1.2,1.2,0,0,0,.248-.733,1.25,1.25,0,1,0-2.5,0,1.2,1.2,0,0,0,.248.733,2.96,2.96,0,0,1,.6,1.846L35.448,29.8c-.677-7.886-2.363-17.075-6.876-25.551a8.083,8.083,0,0,1-.4-2.222A1.284,1.284,0,0,0,26.926.781a1.262,1.262,0,0,0-1.25,1.251c-.03,1.141,1.626,1.49,2.168,2.635,3.9,7.468,5.752,16.712,6.591,24.151a54.537,54.537,0,0,0-13.614-23.3c-.517-.509-.5-1.59-1.091-2.131a1.327,1.327,0,0,0-.893-.375,1.25,1.25,0,0,0-1.25,1.251,1.159,1.159,0,0,0,.366.884c.75.65,1.667.39,2.233.986A49.017,49.017,0,0,1,33,28.161,41.93,41.93,0,0,0,14.563,8.573c-.924-.561-.883-2-2.467-2.036a1.24,1.24,0,0,0-1.25,1.251,1.327,1.327,0,0,0,1.25,1.25c.957.143,1.386-.107,2.064.281A39.987,39.987,0,0,1,31.152,26.905,29.732,29.732,0,0,0,28.5,23.779c-5.573-5.649-13.21-9.161-19.278-10.771-1.435-.432-1.594-1.387-2.909-1.379a1.251,1.251,0,1,0,0,2.5c1.1.037,1.527-.626,2.737-.26,5.777,1.555,13.319,4.889,18.853,10.5.521.528,1,1.073,1.465,1.622a21.6,21.6,0,0,0-17.7-5.329,35.361,35.361,0,0,0-7.585,2.045c-.037.011-.26.073-.315.095-1.325.526-2.154.132-2.818.374A1.209,1.209,0,0,0,0,24.389a1.247,1.247,0,0,0,1.729,1.154h0c.008,0,.014-.008.021-.011,1.215-.536.935-1.376,2.313-1.91a34.732,34.732,0,0,1,7.724-2.13A20.852,20.852,0,0,1,27.765,25.74c-.072-.039-.148-.083-.219-.119a9.824,9.824,0,0,0-5.406-1.037C18.587,24.907,14.779,27,10.5,30.969a36.012,36.012,0,0,0-4.064,4.413,3.78,3.78,0,0,1-1.379,1.271c-.645.246-1.25.56-1.25,1.25a1.251,1.251,0,0,0,2.5,0A3.127,3.127,0,0,1,7,35.982a30.912,30.912,0,0,1,4.072-4.4c4.136-3.844,7.781-5.86,11.143-6.165a8.944,8.944,0,0,1,4.95.948A13.1,13.1,0,0,1,29.3,27.746c-8.761-1.019-13.516,7.04-16.1,15.188a5.26,5.26,0,0,1-1.214,1.892,1.2,1.2,0,0,0-.313.813,1.25,1.25,0,0,0,1.25,1.25A1.236,1.236,0,0,0,14.142,45.8h0s0-.005,0-.008c.139-.687-.532-1.621-.1-2.785,2.5-7.764,6.505-12.756,11.542-14.1,9.616-1.657,9.021,14.85,9.176,23.215h2.31c.155-8.366-.44-24.873,9.176-23.215,5.037,1.345,9.045,6.336,11.542,14.1.437,1.164-.235,2.1-.1,2.785,0,0,0,.005,0,.008h0a1.236,1.236,0,0,0,1.218,1.089,1.25,1.25,0,0,0,1.25-1.25,1.2,1.2,0,0,0-.313-.813,5.26,5.26,0,0,1-1.214-1.892c-2.587-8.148-7.342-16.207-16.1-15.188a13.1,13.1,0,0,1,2.138-1.377,8.944,8.944,0,0,1,4.95-.948c3.362.305,7.007,2.321,11.143,6.165a30.912,30.912,0,0,1,4.072,4.4,3.127,3.127,0,0,1,.692,1.921,1.25,1.25,0,1,0,2.5,0c0-.691-.605-1-1.25-1.25a3.78,3.78,0,0,1-1.379-1.271,36.011,36.011,0,0,0-4.064-4.413C57.064,27,53.257,24.907,49.7,24.584A9.824,9.824,0,0,0,44.3,25.621c-.07.036-.146.08-.219.119a20.852,20.852,0,0,1,15.976-4.248,34.733,34.733,0,0,1,7.724,2.13c1.378.534,1.1,1.374,2.313,1.91l.021.011h0a1.247,1.247,0,0,0,1.729-1.154,1.209,1.209,0,0,0-.949-1.214" transform="translate(0 0.001)"/><path class="c" d="M784.722,989.49H784.7q.8,0,1.577.027-.766-.027-1.552-.027" transform="translate(-748.595 -943.966)"/><path class="c" d="M446.876,1041.2c1.747.879,2.771,1.944,2.771,3.091,0,3.021-7.091,5.47-15.838,5.47s-15.838-2.449-15.838-5.47c0-.956.711-1.855,1.96-2.637-1.909,1.068-3.029,2.366-3.029,3.766,0,3.644,7.587,6.6,16.946,6.6s16.947-2.955,16.947-6.6c0-1.6-1.472-3.076-3.918-4.22" transform="translate(-397.72 -993.297)"/><path class="c" d="M821.4,990.175l-.148-.006.148.006" transform="translate(-783.464 -944.614)"/><path class="c" d="M778.706,989.5h0" transform="translate(-742.88 -943.97)"/></g></g><rect class="a" width="76" height="76" transform="translate(82 28)"/></g></svg>