<svg class="icon" viewBox="0 0 1024 1024" xmlns="http://www.w3.org/2000/svg" width="64" height="64"><path d="M578.848 660.192H295.552c-13.568 0-22.4-6.208-24.608-17.344-.416-2.208-.384-4.576-.384-6.816v-244c0-15.424 8.352-23.616 24-23.616h284.288v-7.392l.032-217.152c0-9.952 4.704-17.888 12.768-20.928 9.248-3.52 17.472-1.888 24.448 5.472 4 4.224 8.352 8.096 12.48 12.224L784 295.808l199.616 199.2c11.104 11.04 11.168 22.688.224 33.632L698.112 813.792c-27.104 27.04-54.336 53.92-81.408 80.96-6.976 6.976-14.752 10.016-24.256 6.4-9.248-3.52-13.6-10.784-13.6-22.24l-.032-210.272.032-8.448zM407.776 125.216v82.176H191.2c-44.16 0-76.672 32.608-76.672 76.832 0 153.088.288 306.144-.16 459.232-.128 40.512 30.656 69.664 59.168 75.008 6.272 1.152 12.768 1.696 19.2 1.728 69.056.096 138.08.064 207.168.064h7.776v81.728c-.992.192-2.112.64-3.296.64-73.408 0-146.848.736-220.256-.32-71.744-1.024-135.264-55.456-148.96-125.952a158.336 158.336 0 0 1-2.88-30.304c-.192-154.752-.608-309.504.096-464.256.288-64.64 32.384-111.04 88.48-141.184a134.784 134.784 0 0 1 64.16-15.52c72.8-.192 145.6-.064 218.4-.064 1.216 0 2.432.128 4.352.192zm0 0"/></svg>
