<svg xmlns="http://www.w3.org/2000/svg" width="144" height="143"><path d="M511.957 9.173c-277.845 0-503.85 226.006-503.85 503.851s226.005 503.893 503.85 503.893 503.851-226.048 503.851-503.893c0-277.845-226.005-503.85-503.85-503.85zm0 965.078c-254.293 0-461.184-206.934-461.184-461.227 0-254.293 206.891-461.184 461.184-461.184s461.184 206.89 461.184 461.184c0 254.293-206.89 461.227-461.184 461.227z"/><path d="M469.461 407.339c0-57.558-46.805-104.363-104.362-104.363s-104.406 46.805-104.406 104.363S307.541 511.744 365.1 511.744 469.46 464.896 469.46 407.339zm-166.101 0c0-34.006 27.69-61.696 61.739-61.696 34.005 0 61.696 27.69 61.696 61.696 0 34.048-27.691 61.738-61.696 61.738a61.781 61.781 0 0 1-61.739-61.738zm356.437-104.363c-57.557 0-104.362 46.805-104.362 104.363s46.848 104.405 104.362 104.405S764.16 464.896 764.16 407.339s-46.848-104.363-104.363-104.363zm0 166.101a61.781 61.781 0 0 1 0-123.434 61.739 61.739 0 0 1 0 123.434zm-10.41 212.736H374.528a21.333 21.333 0 0 0 0 42.667h274.816a21.333 21.333 0 0 0 .043-42.667z"/></svg>