<svg width="113" height="112" viewBox="0 0 113 112" fill="none" xmlns="http://www.w3.org/2000/svg"><g fill="#02ABFF"><path d="M35.303 54.053c0 3.208 1.28 6.285 3.556 8.554a12.163 12.163 0 0 0 8.585 3.543c3.22 0 6.308-1.275 8.584-3.543a12.075 12.075 0 0 0 3.556-8.554c0-3.208-1.279-6.285-3.556-8.554a12.163 12.163 0 0 0-8.584-3.543c-3.22 0-6.308 1.274-8.585 3.543a12.075 12.075 0 0 0-3.556 8.554z"/><path d="M68.4 37.69l-.153-.153H47.991v1.116c6.89.262 12.578 5.36 14 12.097h10.281c.612 0 1.094.503 1.094 1.093v1.094c0 .613-.503 1.094-1.094 1.094h-9.931a15.86 15.86 0 0 1-.46 3.85h10.391c.612 0 1.094.503 1.094 1.094v1.093c0 .613-.503 1.094-1.094 1.094H60.634a15.73 15.73 0 0 1-2.253 3.303h13.891c.612 0 1.094.503 1.094 1.094v1.094c0 .612-.503 1.093-1.094 1.093H54.159a14.373 14.373 0 0 1-6.168 1.641v6.06h30.34V47.992h-9.93V37.69z"/><path d="M56.719 1.531C26.64 1.531 2.25 25.921 2.25 56c0 30.078 24.39 54.469 54.469 54.469 30.078 0 54.469-24.39 54.469-54.469 0-30.078-24.391-54.469-54.47-54.469zm-19.14 67.156l-5.054 5.841a1.105 1.105 0 0 1-1.553.11l-3.347-2.866a1.105 1.105 0 0 1-.11-1.553l5.054-5.84a1.105 1.105 0 0 1 1.553-.11l3.347 2.887c.46.394.503 1.072.11 1.531zm44.077 7.372a2.759 2.759 0 0 1-2.756 2.757H47.444a2.745 2.745 0 0 1-2.757-2.757v-6.868c-6.912-1.335-12.14-7.613-12.14-15.138 0-7.525 5.228-13.803 12.14-15.137V36.99a2.759 2.759 0 0 1 2.757-2.757h23.34l10.872 11.003V76.06z"/></g></svg>