<svg class="icon" viewBox="0 0 1024 1024" xmlns="http://www.w3.org/2000/svg" width="200" height="200"><path d="M1023.2 43.683L877.057 920.64c-1.899 10.996-8.096 19.593-18.292 25.69-5.298 2.9-11.296 4.599-17.694 4.599-4.198 0-8.796-1-13.694-2.9l-236.708-96.762c-12.995-5.297-27.889-1.499-36.785 9.297l-123.252 150.341c-6.898 8.797-16.294 13.095-27.99 13.095-4.897 0-9.096-.8-12.694-2.3-7.198-2.698-12.995-6.996-17.394-13.394-4.398-6.297-6.697-13.195-6.697-20.892v-176.33c0-14.795 5.098-28.99 14.394-40.485l478.913-587.07L256.3 705.323c-4.598 3.899-10.996 4.999-16.494 2.7L23.391 619.357C9.296 614.06 1.599 603.664.6 587.87c-.8-15.194 5.298-26.49 18.293-33.786L968.922 5.998C974.719 2.499 980.717.9 987.214.9c7.697 0 14.595 2.199 20.692 6.397 12.695 8.997 17.593 21.292 15.294 36.386z"/></svg>