<svg class="icon" viewBox="0 0 1024 1024" xmlns="http://www.w3.org/2000/svg" width="128" height="128"><path d="M508.885 81.778c14.99 0 29.568 2.944 39.993 8.078l287.389 141.44c4.565 2.247 15.189 8.42 15.246 17.266.043 6.329-5.845 13.113-15.744 18.133l-290.432 147.47c-11.193 5.69-26.766 8.946-42.71 8.946-14.99 0-29.567-2.944-39.992-8.078l-287.403-141.44c-4.565-2.247-15.19-8.42-15.246-17.266-.043-6.329 5.845-13.113 15.758-18.133L466.176 90.738c11.207-5.703 26.766-8.96 42.71-8.96m0-28.445c-20.566 0-40.306 4.281-55.581 12.032l-290.418 147.47c-20.01 10.17-31.431 26.084-31.317 43.677.114 17.408 11.463 32.939 31.146 42.61l287.389 141.426c14.407 7.096 33.067 10.993 52.551 10.993 20.565 0 40.306-4.28 55.58-12.032l290.432-147.47c20.011-10.169 31.417-26.083 31.304-43.676-.114-17.394-11.464-32.939-31.133-42.61L561.436 64.327c-14.407-7.083-33.066-10.994-52.55-10.994zM145.208 373.39c5.56 0 11.747 1.65 18.29 4.836L420.907 513.28c22.755 11.221 38.03 35.072 38.03 50.29v363.164c0 9.7-5.973 15.488-15.986 15.488-5.56 0-11.762-1.65-18.29-4.821L167.253 802.347c-22.755-11.236-38.03-35.072-38.03-50.29V388.864c.014-9.685 5.988-15.474 15.986-15.474m0-28.444c-25.728 0-44.416 18.474-44.416 43.932v363.179c0 28.103 23.14 60.63 53.888 75.804l256.782 134.742.626.313c10.567 5.148 20.95 7.765 30.876 7.765 25.743 0 44.416-18.475 44.43-43.918V563.57c0-28.103-23.153-60.63-53.887-75.805L176.725 353.024l-.64-.313c-10.567-5.148-20.949-7.765-30.876-7.765zm733.582 28.43c9.998 0 15.972 5.788 15.972 15.488v363.179c0 15.217-15.29 39.068-38.656 50.617l-257.01 134.855c-6.514 3.129-12.587 4.721-18.048 4.721-10.013 0-15.986-5.788-15.986-15.473V563.57c0-15.232 15.275-39.069 38.656-50.617l257.01-134.855c6.514-3.13 12.6-4.722 18.062-4.722m0-28.444c-9.927 0-20.323 2.616-30.876 7.78L590.507 487.764c-30.749 15.175-53.888 47.702-53.888 75.805v363.178c0 25.444 18.688 43.919 44.43 43.919 9.927 0 20.31-2.617 30.876-7.766l257.408-135.054c30.749-15.175 53.888-47.701 53.888-75.804V388.864c-.014-25.458-18.688-43.932-44.43-43.932z"/></svg>