<svg width="12" height="12" viewBox="0 0 12 12" fill="none" xmlns="http://www.w3.org/2000/svg">
<path d="M9.08616 3.92664C8.86684 3.80003 8.58486 3.80003 8.3342 3.92664L6.57963 4.97115L5.38903 5.63584L3.6658 6.68035C3.44648 6.80696 3.16449 6.80696 2.91384 6.68035L1.56658 5.8574C1.34726 5.7308 1.1906 5.47758 1.1906 5.19272V3.61012C1.1906 3.35691 1.31593 3.10369 1.56658 2.94544L2.91384 2.15414C3.13316 2.02753 3.41514 2.02753 3.6658 2.15414L5.01305 2.97709C5.23238 3.10369 5.38903 3.35691 5.38903 3.64178V4.68629L6.57963 3.98995V2.91378C6.57963 2.66057 6.45431 2.40735 6.20366 2.2491L3.69713 0.761459C3.47781 0.634852 3.19582 0.634852 2.94517 0.761459L0.375979 2.28075C0.125326 2.40735 0 2.66057 0 2.91378V5.88906C0 6.14227 0.125326 6.39548 0.375979 6.55374L2.91384 8.04138C3.13316 8.16799 3.41514 8.16799 3.6658 8.04138L5.38903 7.02852L6.57963 6.33218L8.30287 5.31932C8.52219 5.19272 8.80418 5.19272 9.05483 5.31932L10.4021 6.11062C10.6214 6.23723 10.7781 6.49044 10.7781 6.77531V8.3579C10.7781 8.61111 10.6527 8.86433 10.4021 9.02259L9.08616 9.81388C8.86684 9.94049 8.58486 9.94049 8.3342 9.81388L6.98695 9.02259C6.76762 8.89598 6.61097 8.64277 6.61097 8.3579V7.34504L5.42037 8.04138V9.08589C5.42037 9.3391 5.54569 9.59232 5.79634 9.75058L8.3342 11.2382C8.55352 11.3648 8.83551 11.3648 9.08616 11.2382L11.624 9.75058C11.8433 9.62397 12 9.37076 12 9.08589V6.07897C12 5.82575 11.8747 5.57254 11.624 5.41428L9.08616 3.92664Z" fill="#8247E5"/>
</svg>
