<svg xmlns="http://www.w3.org/2000/svg" width="80" height="80" viewBox="0 0 80 80"><defs><style>.c{fill:#fff;stroke:#fff;stroke-width:1.5px}</style></defs><path fill="none" d="M0 0h80v80H0z"/><g opacity=".8"><path class="c" d="M25.75 38.056c-2.576-.05-3.563 1.1-3.194 3.291a6.563 6.563 0 0 0 7.63 5.03c1.289-.258 2.646-.731 2.737-2.11a5.208 5.208 0 0 0-1.056-3.345 8.892 8.892 0 0 0-6.117-2.866M54.252 38.056a8.894 8.894 0 0 0-6.118 2.866 5.211 5.211 0 0 0-1.055 3.345c.091 1.379 1.448 1.851 2.737 2.11a6.563 6.563 0 0 0 7.63-5.03c.369-2.19-.618-3.34-3.194-3.291"/><path class="c" d="M66.418 35.516a7.944 7.944 0 0 1-.442-3.739c.39-4.256.613-8.528.893-12.794a5.413 5.413 0 0 0-.051-.894c-.359-3.556-2.35-4.822-5.358-2.975-3.71 2.283-7.191 4.947-10.68 7.569a3.274 3.274 0 0 1-2.91.873 38.419 38.419 0 0 0-7.87-.745 38.413 38.413 0 0 0-7.869.745 3.274 3.274 0 0 1-2.91-.873c-3.489-2.622-6.971-5.286-10.68-7.569-3.009-1.847-5-.581-5.358 2.975a5.478 5.478 0 0 0-.051.894c.279 4.266.5 8.538.893 12.794a7.944 7.944 0 0 1-.442 3.739c-2.471 6.471-2.117 12.736 1.545 18.724a33.48 33.48 0 0 0 12.139 11.845 24.087 24.087 0 0 0 25.466 0A33.471 33.471 0 0 0 64.872 54.24c3.663-5.989 4.016-12.254 1.545-18.725m-2.385 16.939a31.332 31.332 0 0 1-13.71 13.057 22.094 22.094 0 0 1-20.643 0 31.33 31.33 0 0 1-13.71-13.057c-3.076-5.516-2.939-11.187-.728-16.962a7.911 7.911 0 0 0 .436-3.141c-.233-4.659-.671-9.31-.827-13.97-.088-2.609 1-3.258 3.214-1.8 3.558 2.342 6.936 4.969 10.342 7.53 1 .75 1.8 1.514 3.284 1.173A35.034 35.034 0 0 1 40 24.43a35.031 35.031 0 0 1 8.31.855c1.481.341 2.286-.423 3.284-1.173 3.411-2.561 6.784-5.188 10.342-7.532 2.212-1.457 3.3-.808 3.214 1.8-.156 4.66-.595 9.311-.827 13.97a7.911 7.911 0 0 0 .436 3.141c2.21 5.778 2.347 11.447-.728 16.962"/><path class="c" d="M43.889 52.013a16.5 16.5 0 0 0-3.888-.3 16.976 16.976 0 0 0-3.889.3c-1.029.244-1.326.965-.643 1.909 1.469 2.029 3.012 2.877 4.531 2.808 1.518.069 3.061-.78 4.531-2.808.684-.944.386-1.664-.643-1.909"/></g></svg>