<svg width="95" height="94" viewBox="0 0 95 94" fill="none" xmlns="http://www.w3.org/2000/svg"><path d="M34.198 26.845a1.482 1.482 0 0 1 1.405-.055l.095.05 12.743 7.417a1.496 1.496 0 0 1 .74 1.194l.005.107v14.953c0 .477-.225.924-.602 1.206l-.084.058-7.037 4.553a1.481 1.481 0 0 1-2.033-.41 1.511 1.511 0 0 1 .342-2.062l.08-.056 6.352-4.11V36.425l-11.246-6.546-11.065 6.54v13.283l6.175 4.108a1.513 1.513 0 0 1 .474 1.997l-.052.085a1.481 1.481 0 0 1-1.982.478l-.083-.052-6.843-4.553a1.497 1.497 0 0 1-.667-1.153l-.003-.101V35.558c0-.498.244-.96.648-1.239l.088-.057 12.55-7.417z" fill="url(#paint0_radial_1401_13143)"/><path d="M59.489 26.845a1.482 1.482 0 0 1 1.406-.055l.094.05 12.743 7.417a1.496 1.496 0 0 1 .741 1.194l.004.107v14.953c0 .477-.225.924-.602 1.206l-.083.058-7.038 4.553a1.48 1.48 0 0 1-2.032-.41 1.512 1.512 0 0 1 .341-2.062l.08-.056 6.352-4.11V36.425l-11.246-6.546-11.8 6.975a1.48 1.48 0 0 1-1.989-.453l-.052-.083a1.513 1.513 0 0 1 .449-2.003l.083-.053 12.549-7.417zm-13.04 22.838c.21-.318.53-.544.898-.633a1.48 1.48 0 0 1 1.084.155l.085.052 6.843 4.553a1.512 1.512 0 0 1 .46 2.046 1.48 1.48 0 0 1-2.018.514l-.085-.052-6.843-4.553a1.496 1.496 0 0 1-.64-.953 1.514 1.514 0 0 1 .217-1.129z" fill="url(#paint1_radial_1401_13143)"/><path d="M52.252 45.18a1.481 1.481 0 0 1 1.983-.476l.083.052 6.844 4.56a1.498 1.498 0 0 1 .665 1.154l.004.1v14.953c0 .498-.245.96-.648 1.24l-.09.056-12.548 7.416a1.482 1.482 0 0 1-1.405.056l-.094-.05-12.743-7.417a1.496 1.496 0 0 1-.742-1.195l-.003-.106V50.57c0-.478.225-.925.602-1.207l.083-.058 7.037-4.553a1.48 1.48 0 0 1 2.04.407 1.511 1.511 0 0 1-.348 2.065l-.08.057-6.353 4.109v13.265L47.785 71.2l11.065-6.54V51.377l-6.175-4.115a1.513 1.513 0 0 1-.472-1.998l.05-.084z" fill="url(#paint2_radial_1401_13143)"/><defs><radialGradient id="paint0_radial_1401_13143" cx="0" cy="0" r="1" gradientUnits="userSpaceOnUse" gradientTransform="rotate(35.114 -21.48 39.941) scale(38.2094 315.033)"><stop stop-color="#59F6F6"/><stop offset=".573" stop-color="#B891E9"/><stop offset="1" stop-color="#5D85D2"/></radialGradient><radialGradient id="paint1_radial_1401_13143" cx="0" cy="0" r="1" gradientUnits="userSpaceOnUse" gradientTransform="matrix(31.2559 21.98291 -181.2598 257.72012 44.356 19.623)"><stop stop-color="#59F6F6"/><stop offset=".573" stop-color="#B891E9"/><stop offset="1" stop-color="#5D85D2"/></radialGradient><radialGradient id="paint2_radial_1401_13143" cx="0" cy="0" r="1" gradientUnits="userSpaceOnUse" gradientTransform="matrix(31.25508 21.9834 -181.26623 257.71683 31.71 37.49)"><stop stop-color="#59F6F6"/><stop offset=".573" stop-color="#B891E9"/><stop offset="1" stop-color="#5D85D2"/></radialGradient></defs></svg>